HIERARCHY
ROOT root
{
  OFFSET 0 87.9003 0
  CHANNELS 6 Xposition Yposition Zposition Zrotation Xrotation Yrotation
  JOINT torso_1
  {
    OFFSET 0 4.78511 -1.08482
    CHANNELS 6 Xposition Yposition Zposition Zrotation Xrotation Yrotation
    JOINT torso_2
    {
      OFFSET 0 5.29195 1.00949
      CHANNELS 6 Xposition Yposition Zposition Zrotation Xrotation Yrotation
      JOINT torso_3
      {
        OFFSET -9.66735e-18 5.64355 0.108362
        CHANNELS 6 Xposition Yposition Zposition Zrotation Xrotation Yrotation
        JOINT torso_4
        {
          OFFSET -1.04072e-17 6.12977 -0.417886
          CHANNELS 6 Xposition Yposition Zposition Zrotation Xrotation Yrotation
          JOINT torso_5
          {
            OFFSET -1.85891e-17 7.16586 -1.41888
            CHANNELS 6 Xposition Yposition Zposition Zrotation Xrotation Yrotation
            JOINT torso_6
            {
              OFFSET -2.38665e-17 8.94839 -0.861631
              CHANNELS 6 Xposition Yposition Zposition Zrotation Xrotation Yrotation
              JOINT torso_7
              {
                OFFSET -2.73615e-17 9.94144 1.48576
                CHANNELS 6 Xposition Yposition Zposition Zrotation Xrotation Yrotation
                JOINT neck_1
                {
                  OFFSET -1.21725e-17 4.50977 0.67399
                  CHANNELS 6 Xposition Yposition Zposition Zrotation Xrotation Yrotation
                  JOINT neck_2
                  {
                    OFFSET -1.70689e-17 4.54241 0.39741
                    CHANNELS 6 Xposition Yposition Zposition Zrotation Xrotation Yrotation
                    JOINT head
                    {
                      OFFSET -1.89342e-17 4.5512 0.720839
                      CHANNELS 6 Xposition Yposition Zposition Zrotation Xrotation Yrotation
                      End Site
                      {
                        OFFSET 0 0.1 0
                      }
                    }
                  }
                }
                JOINT l_shoulder
                {
                  OFFSET 1.16172 -7.16758 7.09827
                  CHANNELS 6 Xposition Yposition Zposition Zrotation Xrotation Yrotation
                  JOINT l_up_arm
                  {
                    OFFSET 12.2059 3.06167 -3.07978
                    CHANNELS 6 Xposition Yposition Zposition Zrotation Xrotation Yrotation
                    JOINT l_low_arm
                    {
                      OFFSET 27.5197 0.056351 0.129118
                      CHANNELS 6 Xposition Yposition Zposition Zrotation Xrotation Yrotation
                      JOINT l_hand
                      {
                        OFFSET 22.8331 0.0467536 0.107129
                        CHANNELS 6 Xposition Yposition Zposition Zrotation Xrotation Yrotation
                        End Site
                        {
                          OFFSET 0.1 0 0
                        }
                      }
                    }
                  }
                }
                JOINT r_shoulder
                {
                  OFFSET -1.16172 -7.16756 7.09818
                  CHANNELS 6 Xposition Yposition Zposition Zrotation Xrotation Yrotation
                  JOINT r_up_arm
                  {
                    OFFSET -12.2059 3.06167 -3.07978
                    CHANNELS 6 Xposition Yposition Zposition Zrotation Xrotation Yrotation
                    JOINT r_low_arm
                    {
                      OFFSET -27.5197 0.056351 0.129118
                      CHANNELS 6 Xposition Yposition Zposition Zrotation Xrotation Yrotation
                      JOINT r_hand
                      {
                        OFFSET -22.8331 0.0467534 0.107129
                        CHANNELS 6 Xposition Yposition Zposition Zrotation Xrotation Yrotation
                        End Site
                        {
                          OFFSET -0.1 0 0
                        }
                      }
                    }
                  }
                }
              }
            }
          }
        }
      }
    }
  }
  JOINT l_up_leg
  {
    OFFSET 8.70282 -3.96247 1.9152
    CHANNELS 6 Xposition Yposition Zposition Zrotation Xrotation Yrotation
    JOINT l_low_leg
    {
      OFFSET -0.803084 -36.5309 -0.617314
      CHANNELS 6 Xposition Yposition Zposition Zrotation Xrotation Yrotation
      JOINT l_foot
      {
        OFFSET -2.19176 -38.0664 -5.69911
        CHANNELS 6 Xposition Yposition Zposition Zrotation Xrotation Yrotation
        JOINT l_toes
        {
          OFFSET 0.734061 -9.31305 11.7736
          CHANNELS 6 Xposition Yposition Zposition Zrotation Xrotation Yrotation
          End Site
          {
            OFFSET 0 0 0.1
          }
        }
      }
    }
  }
  JOINT r_up_leg
  {
    OFFSET -8.70282 -3.96247 1.9152
    CHANNELS 6 Xposition Yposition Zposition Zrotation Xrotation Yrotation
    JOINT r_low_leg
    {
      OFFSET 0.803084 -36.5309 -0.617314
      CHANNELS 6 Xposition Yposition Zposition Zrotation Xrotation Yrotation
      JOINT r_foot
      {
        OFFSET 2.19176 -38.0664 -5.69911
        CHANNELS 6 Xposition Yposition Zposition Zrotation Xrotation Yrotation
        JOINT r_toes
        {
          OFFSET -0.734061 -9.31305 11.7736
          CHANNELS 6 Xposition Yposition Zposition Zrotation Xrotation Yrotation
          End Site
          {
            OFFSET 0 0 0.1
          }
        }
      }
    }
  }
}
MOTION
Frames: 8
Frame Time: 0.016667
23.0972 83.2718 2140.29 -8.50875 -0.862023 77.6061 0 4.78511 -1.08482 -0.713869 -0.460688 -2.46256 0 5.29195 1.00949 0.0271964 0.452215 -2.3376 -9.66735e-18 5.64355 0.108362 0.32171 1.3013 -2.35809 -1.04072e-17 6.12977 -0.417886 0.5945 2.58869 -2.34422 -1.85891e-17 7.16586 -1.41888 0.351277 3.21278 -2.32482 -2.38665e-17 8.94839 -0.861631 -0.1919 3.32068 -2.15616 -2.73615e-17 9.94144 1.48576 -0.314974 0.464479 0.671085 -1.21725e-17 4.50977 0.67399 -0.499836 -4.74952 -0.617605 -1.70689e-17 4.54241 0.39741 1.45577 -12.2174 -0.150754 -1.89342e-17 4.5512 0.720839 -0.374278 -16.9696 0.489331 1.16172 -7.16758 7.09827 9.16152 -1.09024 7.51204 12.2059 3.06167 -3.07978 -80.7955 16.4059 -2.42843 27.5197 0.056351 0.129118 10.858 -17.0165 -115.738 22.8331 0.0467536 0.107129 3.26398 -25.2017 -2.49702 -1.16172 -7.16756 7.09818 -1.54482 4.45805 -2.935 -12.2059 3.06167 -3.07978 73.1995 -20.2743 -29.0599 -27.5197 0.056351 0.129118 -2.12943 -0.180979 10.3134 -22.8331 0.0467534 0.107129 -4.61515 6.35252 -2.79116 8.70282 -3.96247 1.9152 -4.70383 -13.0837 -25.927 -0.803084 -36.5309 -0.617314 -3.88048 14.2926 0.235791 -2.19176 -38.0664 -5.69911 2.09149 -10.4533 15.4487 0.734061 -9.31305 11.7736 6.37837e-16 -6.45327e-16 -2.14452e-16 -8.70282 -3.96247 1.9152 13.5413 -59.969 34.5157 0.803084 -36.5309 -0.617314 15.4949 45.777 -5.71899 2.19176 -38.0664 -5.69911 -0.177466 -6.65187 -15.6526 -0.734061 -9.31305 11.7736 -3.51362e-16 -3.96631e-16 -1.25911e-14 
27.1073 81.7322 2142.05 -2.67773 -1.36095 78.3909 0 4.78511 -1.08482 -1.13826 1.90264 -2.45454 0 5.29195 1.00949 -0.299915 2.22208 -2.38733 -9.66735e-18 5.64355 0.108362 0.0691659 2.50569 -2.3981 -1.04072e-17 6.12977 -0.417886 0.394659 2.74954 -2.37875 -1.85891e-17 7.16586 -1.41888 0.221779 2.59093 -2.3559 -2.38665e-17 8.94839 -0.861631 -0.225681 2.41403 -2.17846 -2.73615e-17 9.94144 1.48576 -0.354506 0.580961 0.652115 -1.21725e-17 4.50977 0.67399 -0.271198 -4.62775 -0.590764 -1.70689e-17 4.54241 0.39741 1.3577 -12.3395 -0.160858 -1.89342e-17 4.5512 0.720839 -0.33982 -16.1766 0.139362 1.16172 -7.16758 7.09827 8.06168 -0.964952 6.40489 12.2059 3.06167 -3.07978 -79.0536 14.5654 -3.1513 27.5197 0.056351 0.129118 11.0118 -16.6946 -113.987 22.8331 0.0467536 0.107129 2.5153 -25.9267 -2.09435 -1.16172 -7.16756 7.09818 -1.55962 5.32544 -2.45063 -12.2059 3.06167 -3.07978 75.1933 -17.2755 -28.0636 -27.5197 0.056351 0.129118 -1.93056 -0.147582 9.34187 -22.8331 0.0467534 0.107129 -5.46374 2.59483 -3.12262 8.70282 -3.96247 1.9152 -4.87194 -6.05803 -27.2294 -0.803084 -36.5309 -0.617314 -5.2407 19.0278 0.543257 -2.19176 -38.0664 -5.69911 4.72516 -20.7884 16.1993 0.734061 -9.31305 11.7736 -1.07325e-16 -6.77521e-16 -1.84699e-16 -8.70282 -3.96247 1.9152 8.17663 -52.5769 29.4908 0.803084 -36.5309 -0.617314 12.7944 40.306 -3.97167 2.19176 -38.0664 -5.69911 0.174909 -7.39448 -15.5965 -0.734061 -9.31305 11.7736 -1.8627e-16 -4.03764e-16 -1.25989e-14 
30.6056 80.8911 2143.78 7.45704 -1.93163 78.9583 0 4.78511 -1.08482 -1.75184 5.72503 -2.33798 0 5.29195 1.00949 -0.786698 4.97917 -2.29193 -9.66735e-18 5.64355 0.108362 -0.325637 4.53186 -2.30331 -1.04072e-17 6.12977 -0.417886 0.0646528 3.45519 -2.27162 -1.85891e-17 7.16586 -1.41888 0.00612094 2.21586 -2.2472 -2.38665e-17 8.94839 -0.861631 -0.280407 1.61169 -2.06863 -2.73615e-17 9.94144 1.48576 -0.41704 0.646495 0.622754 -1.21725e-17 4.50977 0.67399 0.0106946 -5.24122 -0.602838 -1.70689e-17 4.54241 0.39741 1.2861 -12.3813 -0.210009 -1.89342e-17 4.5512 0.720839 -0.636453 -14.3359 -0.376505 1.16172 -7.16758 7.09827 6.53122 -1.39826 4.7745 12.2059 3.06167 -3.07978 -76.9708 12.4406 -4.16833 27.5197 0.056351 0.129118 11.2794 -16.0592 -110.608 22.8331 0.0467536 0.107129 1.50713 -27.0084 -1.48835 -1.16172 -7.16756 7.09818 -1.56865 5.8509 -1.9799 -12.2059 3.06167 -3.07978 78.9536 -11.8489 -26.4914 -27.5197 0.056351 0.129118 -1.65843 -0.107479 8.01635 -22.8331 0.0467534 0.107129 -7.60078 -4.11407 -4.16461 8.70282 -3.96247 1.9152 -5.73127 5.85019 -28.4528 -0.803084 -36.5309 -0.617314 -6.2766 22.4749 0.850076 -2.19176 -38.0664 -5.69911 6.13878 -26.3281 16.7066 0.734061 -9.31305 11.7736 -8.19918e-16 -7.08308e-16 -1.56473e-16 -8.70282 -3.96247 1.9152 3.61301 -39.913 25.8255 0.803084 -36.5309 -0.617314 9.80805 32.9885 -2.31526 2.19176 -38.0664 -5.69911 0.187966 -7.63153 -15.468 -0.734061 -9.31305 11.7736 4.76346e-16 -4.32392e-16 -1.26255e-14 
33.962 80.7032 2145.77 19.0485 -1.95643 78.9626 0 4.78511 -1.08482 -2.50127 9.99034 -2.13173 0 5.29195 1.00949 -1.39825 7.99217 -2.03296 -9.66735e-18 5.64355 0.108362 -0.836051 6.91058 -2.06485 -1.04072e-17 6.12977 -0.417886 -0.362032 4.73575 -2.01392 -1.85891e-17 7.16586 -1.41888 -0.276211 2.49451 -1.97044 -2.38665e-17 8.94839 -0.861631 -0.365898 1.40109 -1.81322 -2.73615e-17 9.94144 1.48576 -0.492906 0.556595 0.580868 -1.21725e-17 4.50977 0.67399 0.256775 -7.10294 -0.661747 -1.70689e-17 4.54241 0.39741 1.40938 -12.1668 -0.301841 -1.89342e-17 4.5512 0.720839 -1.47549 -12.2514 -0.898442 1.16172 -7.16758 7.09827 5.19845 -2.66549 3.22617 12.2059 3.06167 -3.07978 -75.368 10.5948 -5.32198 27.5197 0.056351 0.129118 11.6104 -15.0625 -105.473 22.8331 0.0467536 0.107129 0.382376 -28.2899 -1.69777 -1.16172 -7.16756 7.09818 -1.65614 5.49786 -1.84244 -12.2059 3.06167 -3.07978 83.9938 -4.25381 -24.6453 -27.5197 0.056351 0.129118 -1.35189 -0.0699765 6.528 -22.8331 0.0467534 0.107129 -10.8118 -13.5679 -5.33723 8.70282 -3.96247 1.9152 -7.64194 18.8646 -28.2481 -0.803084 -36.5309 -0.617314 -6.67108 23.7471 0.982619 -2.19176 -38.0664 -5.69911 3.62805 -22.3826 16.0516 0.734061 -9.31305 11.7736 -1.00242e-15 -7.16193e-16 -1.5077e-16 -8.70282 -3.96247 1.9152 -0.0248221 -24.9648 23.918 0.803084 -36.5309 -0.617314 6.69604 23.8268 -0.991286 2.19176 -38.0664 -5.69911 0.283453 -6.84432 -15.3018 -0.734061 -9.31305 11.7736 6.92538e-16 -4.41733e-16 -1.263e-14 
36.4233 80.6819 2148.15 24.2296 -0.441881 76.5794 0 4.78511 -1.08482 -3.52219 11.8069 -1.80375 0 5.29195 1.00949 -2.25178 9.35344 -1.63179 -9.66735e-18 5.64355 0.108362 -1.5458 8.28735 -1.69267 -1.04072e-17 6.12977 -0.417886 -0.915264 6.1825 -1.61846 -1.85891e-17 7.16586 -1.41888 -0.627731 3.85195 -1.48848 -2.38665e-17 8.94839 -0.861631 -0.453382 2.52537 -1.38186 -2.73615e-17 9.94144 1.48576 -0.527794 0.222752 0.504174 -1.21725e-17 4.50977 0.67399 0.3904 -9.23419 -0.436572 -1.70689e-17 4.54241 0.39741 1.98696 -12.0823 -0.267716 -1.89342e-17 4.5512 0.720839 -2.50849 -13.6115 -1.2272 1.16172 -7.16758 7.09827 5.39263 -4.58982 2.82474 12.2059 3.06167 -3.07978 -75.6631 9.11736 -6.16568 27.5197 0.056351 0.129118 11.8909 -13.7828 -99.0924 22.8331 0.0467536 0.107129 -0.781447 -28.9157 -4.65514 -1.16172 -7.16756 7.09818 -1.82409 3.86084 -2.48639 -12.2059 3.06167 -3.07978 88.8318 3.22272 -22.0447 -27.5197 0.056351 0.129118 -1.00258 -0.0370422 4.83685 -22.8331 0.0467534 0.107129 -13.4913 -22.9838 -4.25354 8.70282 -3.96247 1.9152 -10.9022 24.9194 -25.4064 -0.803084 -36.5309 -0.617314 -7.07464 25.0241 1.12684 -2.19176 -38.0664 -5.69911 0.168794 -17.4628 15.6892 0.734061 -9.31305 11.7736 -6.14114e-16 -6.99417e-16 -1.63668e-16 -8.70282 -3.96247 1.9152 -2.76542 -16.5796 23.8626 0.803084 -36.5309 -0.617314 3.8286 14.1079 -0.226291 2.19176 -38.0664 -5.69911 1.48368 -4.52796 -15.1265 -0.734061 -9.31305 11.7736 -6.00124e-16 -3.85884e-16 -1.25795e-14 
37.8804 80.6719 2150.86 16.3136 0.0437691 75.088 0 4.78511 -1.08482 -4.27463 7.05936 -1.58066 0 5.29195 1.00949 -2.75754 6.382 -1.64484 -9.66735e-18 5.64355 0.108362 -1.87516 6.56964 -1.68815 -1.04072e-17 6.12977 -0.417886 -1.02136 6.58781 -1.62097 -1.85891e-17 7.16586 -1.41888 -0.551249 5.91602 -1.4479 -2.38665e-17 8.94839 -0.861631 -0.188437 5.45042 -1.37831 -2.73615e-17 9.94144 1.48576 -0.413015 -0.048933 0.395734 -1.21725e-17 4.50977 0.67399 0.549581 -6.70063 0.484049 -1.70689e-17 4.54241 0.39741 2.46096 -13.1983 0.0945945 -1.89342e-17 4.5512 0.720839 -0.85897 -17.7049 -0.489217 1.16172 -7.16758 7.09827 6.34567 -4.26518 3.13618 12.2059 3.06167 -3.07978 -78.3405 9.40251 -7.46231 27.5197 0.056351 0.129118 12.0219 -12.4963 -92.8273 22.8331 0.0467536 0.107129 1.87293 -24.7883 -4.03962 -1.16172 -7.16756 7.09818 0.322885 2.13146 -2.0452 -12.2059 3.06167 -3.07978 85.2744 -1.54542 -15.4255 -27.5197 0.056351 0.129118 -0.727719 -0.0183972 3.50893 -22.8331 0.0467534 0.107129 -11.8308 -18.6142 -2.56376 8.70282 -3.96247 1.9152 -9.02365 17.8736 -22.7176 -0.803084 -36.5309 -0.617314 -8.23831 28.5632 1.58946 -2.19176 -38.0664 -5.69911 -2.24259 -14.5723 16.3363 0.734061 -9.31305 11.7736 2.03635e-15 -5.84905e-16 -2.77555e-16 -8.70282 -3.96247 1.9152 -1.45824 -19.9755 25.1086 0.803084 -36.5309 -0.617314 1.20743 4.50824 0.0311985 2.19176 -38.0664 -5.69911 4.81424 -0.490441 -15.2679 -0.734061 -9.31305 11.7736 -6.00124e-16 -3.85884e-16 -1.25795e-14 
38.1238 80.7985 2153.97 7.77494 -0.0717499 75.5694 0 4.78511 -1.08482 -3.99023 2.14947 -1.60158 0 5.29195 1.00949 -2.59478 2.86781 -1.81725 -9.66735e-18 5.64355 0.108362 -1.73726 4.19398 -1.82129 -1.04072e-17 6.12977 -0.417886 -0.848688 6.07301 -1.77168 -1.85891e-17 7.16586 -1.41888 -0.402195 6.75644 -1.60257 -2.38665e-17 8.94839 -0.861631 -0.096335 7.10291 -1.54075 -2.73615e-17 9.94144 1.48576 -0.311881 -0.0790616 0.310777 -1.21725e-17 4.50977 0.67399 0.499478 -5.81304 0.580266 -1.70689e-17 4.54241 0.39741 1.7469 -13.0803 0.117855 -1.89342e-17 4.5512 0.720839 1.05415 -17.3214 -0.214472 1.16172 -7.16758 7.09827 4.3598 -3.04925 2.26033 12.2059 3.06167 -3.07978 -78.6369 8.99492 -7.88667 27.5197 0.056351 0.129118 11.9414 -10.5059 -83.2285 22.8331 0.0467536 0.107129 2.77143 -22.5811 -3.22963 -1.16172 -7.16756 7.09818 2.96804 1.99517 -0.704687 -12.2059 3.06167 -3.07978 80.6319 -7.03646 -9.88925 -27.5197 0.056351 0.129118 -0.692113 -0.0164374 3.33711 -22.8331 0.0467534 0.107129 -8.68329 -17.1639 -4.37344 8.70282 -3.96247 1.9152 -5.6912 10.2566 -21.6464 -0.803084 -36.5309 -0.617314 -9.4087 31.9011 2.1202 -2.19176 -38.0664 -5.69911 -3.8074 -9.24579 16.4588 0.734061 -9.31305 11.7736 1.40856e-15 -6.12028e-16 -2.46311e-16 -8.70282 -3.96247 1.9152 0.684549 -24.7074 24.9163 0.803084 -36.5309 -0.617314 -0.23148 -0.86324 -0.0168121 2.19176 -38.0664 -5.69911 6.24155 2.13043 -15.7078 -0.734061 -9.31305 11.7736 -6.00124e-16 -3.85884e-16 -1.25795e-14 
38.4331 80.9638 2157.37 1.10687 -0.418736 76.4391 0 4.78511 -1.08482 -3.30954 -1.96883 -1.72605 0 5.29195 1.00949 -2.17176 -0.263361 -1.98132 -9.66735e-18 5.64355 0.108362 -1.43394 2.12028 -1.95407 -1.04072e-17 6.12977 -0.417886 -0.610619 5.70685 -1.92165 -1.85891e-17 7.16586 -1.41888 -0.283547 7.58259 -1.77641 -2.38665e-17 8.94839 -0.861631 -0.16207 8.58594 -1.7138 -2.73615e-17 9.94144 1.48576 -0.244352 -0.0842156 0.215335 -1.21725e-17 4.50977 0.67399 0.397981 -6.7043 0.428672 -1.70689e-17 4.54241 0.39741 0.722009 -12.5745 0.0381033 -1.89342e-17 4.5512 0.720839 2.40989 -15.7005 0.0904737 1.16172 -7.16758 7.09827 1.37026 -2.34736 1.33595 12.2059 3.06167 -3.07978 -76.8835 7.27659 -9.0162 27.5197 0.056351 0.129118 11.2839 -7.83456 -70.0483 22.8331 0.0467536 0.107129 1.56135 -22.8848 -4.04861 -1.16172 -7.16756 7.09818 4.80264 1.80698 0.114804 -12.2059 3.06167 -3.07978 78.2421 -8.91913 -5.98058 -27.5197 0.056351 0.129118 -0.827454 -0.0243949 3.99068 -22.8331 0.0467534 0.107129 -5.88472 -20.7485 -5.60904 8.70282 -3.96247 1.9152 -2.34202 3.7678 -21.026 -0.803084 -36.5309 -0.617314 -10.4805 34.7605 2.65879 -2.19176 -38.0664 -5.69911 -5.47506 -0.792273 16.1152 0.734061 -9.31305 11.7736 4.97181e-16 -6.51404e-16 -2.10057e-16 -8.70282 -3.96247 1.9152 2.78786 -28.3172 23.8988 0.803084 -36.5309 -0.617314 -0.672452 -2.50377 -0.0584112 2.19176 -38.0664 -5.69911 5.73199 3.61336 -15.7695 -0.734061 -9.31305 11.7736 -3.93202e-16 -3.94824e-16 -1.25859e-14 
